<svg xmlns="http://www.w3.org/2000/svg" width="440" height="440" viewBox="0 0 440 440">
  <g fill="none" stroke="#f5c518" stroke-width="3" stroke-linecap="round" stroke-linejoin="round" opacity="0.09">
    <!-- shopping bag -->
    <g transform="translate(58,62)">
      <path d="M-20,-10 h40 l4,42 h-48 z"/>
      <path d="M-11,-10 a11,11 0 0 1 22,0"/>
    </g>
    <!-- price tag -->
    <g transform="translate(180,54) rotate(-18)">
      <path d="M-22,-12 h20 l14,12 -14,12 h-20 z"/>
      <circle cx="-8" cy="0" r="3.5"/>
    </g>
    <!-- chat bubble -->
    <g transform="translate(300,58)">
      <rect x="-22" y="-16" width="44" height="30" rx="8"/>
      <path d="M-8,14 v9 l10,-9"/>
      <path d="M-12,-3 h24 M-12,4 h16"/>
    </g>
    <!-- smartphone -->
    <g transform="translate(392,132) rotate(12)">
      <rect x="-13" y="-24" width="26" height="48" rx="6"/>
      <path d="M-5,-18 h10"/>
      <circle cx="0" cy="17" r="2.2"/>
    </g>
    <!-- package box -->
    <g transform="translate(108,150)">
      <path d="M0,-22 l22,11 v22 l-22,11 -22,-11 v-22 z"/>
      <path d="M-22,-11 l22,11 22,-11 M0,0 v22"/>
    </g>
    <!-- coins / money -->
    <g transform="translate(232,150)">
      <ellipse cx="-8" cy="6" rx="14" ry="6"/>
      <ellipse cx="-8" cy="0" rx="14" ry="6"/>
      <ellipse cx="10" cy="-4" rx="14" ry="6"/>
    </g>
    <!-- storefront -->
    <g transform="translate(352,232)">
      <path d="M-26,-6 v30 h52 v-30"/>
      <path d="M-30,-6 l6,-14 h48 l6,14 z"/>
      <path d="M-6,24 v-14 h12 v14"/>
    </g>
    <!-- bee (Hive) -->
    <g transform="translate(58,250) rotate(-10)">
      <ellipse cx="0" cy="0" rx="14" ry="9"/>
      <path d="M-5,-8 v16 M2,-8.5 v17 M9,-6 v12"/>
      <path d="M-14,-3 c-12,-12 -16,4 -4,4 M14,-3 c12,-12 16,4 4,4"/>
      <path d="M-13,-9 l-6,-7 M-11,-11 l-3,-8"/>
    </g>
    <!-- honeycomb -->
    <g transform="translate(182,262)">
      <path d="M0,-16 l13,7 v14 l-13,7 -13,-7 v-14 z"/>
      <path d="M26,-1 l13,7 v14 l-13,7 -13,-7"/>
      <path d="M-26,-1 l-13,7 v14 l13,7"/>
    </g>
    <!-- shopping cart -->
    <g transform="translate(300,330)">
      <path d="M-22,-14 h6 l5,26 h22 l5,-18 h-30"/>
      <circle cx="-6" cy="20" r="3.5"/>
      <circle cx="12" cy="20" r="3.5"/>
    </g>
    <!-- hanger / fashion -->
    <g transform="translate(412,332)">
      <path d="M0,-16 a5,5 0 0 1 5,5 c0,4 -5,3 -5,7"/>
      <path d="M0,1 l-22,16 h44 z"/>
    </g>
    <!-- sparkle -->
    <g transform="translate(122,358)">
      <path d="M0,-16 C2,-4 4,-2 16,0 4,2 2,4 0,16 -2,4 -4,2 -16,0 -4,-2 -2,-4 0,-16 z"/>
    </g>
    <!-- naira ₦ -->
    <g transform="translate(244,382)">
      <path d="M-9,14 V-14 L9,14 V-14"/>
      <path d="M-13,-3 H13 M-13,4 H13"/>
    </g>
    <!-- heart -->
    <g transform="translate(40,402)">
      <path d="M0,12 C-12,1 -12,-12 0,-5 12,-12 12,1 0,12 z"/>
    </g>
    <!-- location pin -->
    <g transform="translate(344,402)">
      <path d="M0,16 C-12,2 -12,-14 0,-14 12,-14 12,2 0,16 z"/>
      <circle cx="0" cy="-3" r="4.5"/>
    </g>
    <!-- credit card -->
    <g transform="translate(200,210) rotate(-8)">
      <rect x="-22" y="-14" width="44" height="28" rx="4"/>
      <path d="M-22,-5 h44 M-16,7 h12"/>
    </g>
    <!-- receipt -->
    <g transform="translate(420,60)">
      <path d="M-11,-18 h22 v34 l-4,-3 -4,3 -4,-3 -4,3 -4,-3 -2,3 z"/>
      <path d="M-6,-10 h12 M-6,-3 h12 M-6,4 h8"/>
    </g>
    <!-- small stars / sparkles scattered -->
    <g transform="translate(20,150)"><path d="M0,-7 C1,-2 2,-1 7,0 2,1 1,2 0,7 -1,2 -2,1 -7,0 -2,-1 -1,-2 0,-7 z"/></g>
    <g transform="translate(420,210)"><path d="M0,-7 C1,-2 2,-1 7,0 2,1 1,2 0,7 -1,2 -2,1 -7,0 -2,-1 -1,-2 0,-7 z"/></g>
    <g transform="translate(160,120)"><circle cx="0" cy="0" r="3"/></g>
    <g transform="translate(330,150)"><circle cx="0" cy="0" r="3"/></g>
    <g transform="translate(90,330)"><circle cx="0" cy="0" r="3"/></g>
    <g transform="translate(250,310)"><circle cx="0" cy="0" r="3"/></g>
    <g transform="translate(150,430)"><path d="M0,-7 C1,-2 2,-1 7,0 2,1 1,2 0,7 -1,2 -2,1 -7,0 -2,-1 -1,-2 0,-7 z"/></g>
  </g>
</svg>
