<svg width="91" height="24" viewBox="0 0 91 24" fill="none" xmlns="http://www.w3.org/2000/svg">
<g clip-path="url(#clip0_75877_28170)">
<path d="M34.7652 9.89698V16.0773H32.5451V10.412C32.5451 8.95278 31.7766 8.18024 30.4957 8.18024C29.2148 8.18024 28.2756 9.03863 28.2756 10.5837V15.9914H26.0554V6.37768H28.0194L28.2756 7.57941C28.9587 6.6352 30.0687 6.12017 31.435 6.12017C33.3136 6.12017 34.7652 7.66522 34.7652 9.89698ZM36.5584 11.1845C36.5584 8.2661 38.864 6.03434 41.7672 6.03434C44.6705 6.03434 46.9761 8.18024 46.9761 11.0987C46.9761 14.0172 44.5851 16.2489 41.7672 16.2489C38.864 16.2489 36.5584 14.103 36.5584 11.1845ZM44.7559 11.1845C44.7559 9.38195 43.475 8.09444 41.7672 8.09444C40.0594 8.09444 38.7786 9.38195 38.7786 11.1845C38.7786 12.9871 40.0594 14.2747 41.7672 14.2747C43.475 14.2747 44.7559 12.9871 44.7559 11.1845ZM63.3712 9.81117V16.0773H61.0654V10.412C61.0654 8.95278 60.2971 8.18024 59.1868 8.18024C57.9912 8.18024 57.1376 9.03863 57.1376 10.5837V16.0773H54.9176V10.412C54.9176 8.95278 54.1488 8.18024 53.0385 8.18024C51.8434 8.18024 50.9894 9.03863 50.9894 10.5837V16.0773H48.7693V6.37768H50.6479L50.904 7.57941C51.5871 6.72103 52.6117 6.12017 53.8073 6.12017C55.0883 6.12017 56.1981 6.80687 56.7107 8.00859C57.3083 6.89268 58.5039 6.12017 59.9556 6.12017C61.9195 6.12017 63.3712 7.57941 63.3712 9.81117ZM76.2649 11.1845C76.2649 14.1888 74.0449 16.2489 71.3976 16.2489C69.9459 16.2489 68.7507 15.648 67.8966 14.618L67.6405 16.0773H65.6766V2.34335L67.8966 2.08584V7.75107C68.6654 6.72103 69.8605 6.20601 71.3122 6.20601C74.1302 6.12017 76.2649 8.18024 76.2649 11.1845ZM74.0449 11.1845C74.0449 9.38195 72.7639 8.09444 71.1415 8.09444C69.519 8.09444 68.1527 9.38195 68.1527 11.1845C68.1527 12.9871 69.519 14.2747 71.1415 14.2747C72.7639 14.2747 74.0449 12.9871 74.0449 11.1845ZM85.9141 6.37768H87.8781V16.0773H85.9141L85.6581 14.618C84.8893 15.7339 83.6083 16.3348 82.1571 16.3348C79.5098 16.3348 77.3751 14.2747 77.3751 11.2704C77.3751 8.2661 79.5098 6.20601 82.2424 6.20601C83.6942 6.20601 84.8893 6.80687 85.7434 7.83693L85.9141 6.37768ZM85.5727 11.1845C85.5727 9.38195 84.2063 8.09444 82.5839 8.09444C80.9615 8.09444 79.6805 9.38195 79.6805 11.1845C79.6805 12.9871 80.9615 14.2747 82.5839 14.2747C84.2063 14.2747 85.5727 12.9871 85.5727 11.1845ZM13.3322 10.0687L15.04 9.03863L16.7479 8.00859L18.4557 6.97854L20.1635 5.9485V2L18.4557 3.03004L16.7479 4.06009L15.04 5.09013L13.3322 6.12017L11.6244 7.1502V9.12444L9.91663 8.09444L8.20883 7.06439L6.41561 6.03434L4.70781 5.00429L3 3.97425V7.92273L4.70781 8.95278L6.41561 9.98283L8.12341 11.0129L9.83122 12.0429L11.539 13.073L9.83122 14.103L8.12341 15.133L6.41561 16.1631L4.70781 17.1931L3 18.0515V22L4.70781 20.97L6.41561 19.9399L8.12341 18.9099L9.83122 17.8799L11.539 16.8498V14.8755L13.2468 15.9056L14.9546 16.9356L16.6624 17.9657L18.3703 18.9957L20.0781 20.0258V16.0773L18.3703 15.0472L16.6624 14.0172L14.9546 12.9871L13.2468 11.9571L11.539 10.927L13.3322 10.0687Z" fill="#121212"/>
</g>
<defs>
<clipPath id="clip0_75877_28170">
<rect width="84.8781" height="20" fill="white" transform="translate(3 2)"/>
</clipPath>
</defs>
</svg>
